<svg width="16" height="16" viewBox="0 0 16 16" fill="none" xmlns="http://www.w3.org/2000/svg">
<rect width="16" height="16" fill="#DDDDDD"/>
<g id="11. Customize - Step 3">
<g clip-path="url(#clip0_1_7)">
<rect x="-1370" y="-748" width="1440" height="810" rx="12" fill="#1D1D1F"/>
<g id="Rectangle 55" filter="url(#filter0_d_1_7)">
<rect x="-1023" y="-748" width="1093" height="810" fill="#F8F9FB"/>
</g>
<g id="Group 4519">
<g id="Group 14">
<g id="Rectangle 37" filter="url(#filter1_d_1_7)">
<rect x="-330" y="-540" width="370" height="572" rx="12" fill="white"/>
</g>
</g>
<rect id="Rectangle 18" x="-7" y="-8" width="32" height="32" rx="6" fill="#161616"/>
<g id="paper-plane 1" clip-path="url(#clip1_1_7)">
<path id="Vector" d="M5.83301 11.7422V14.8342C5.83301 15.0502 5.97167 15.2415 6.17701 15.3095C6.22834 15.3262 6.28101 15.3342 6.33301 15.3342C6.48901 15.3342 6.63967 15.2609 6.73567 15.1302L8.54434 12.6689L5.83301 11.7422Z" fill="white"/>
<path id="Vector_2" d="M15.79 0.0927257C15.6367 -0.0159409 15.4354 -0.0306076 15.2687 0.0567257L0.268696 7.89006C0.091363 7.98273 -0.0133037 8.17206 0.00136299 8.37139C0.0166963 8.57139 0.149363 8.74206 0.33803 8.80673L4.50803 10.2321L13.3887 2.63873L6.5167 10.9181L13.5054 13.3067C13.5574 13.3241 13.612 13.3334 13.6667 13.3334C13.7574 13.3334 13.8474 13.3087 13.9267 13.2607C14.0534 13.1834 14.1394 13.0534 14.1614 12.9074L15.9947 0.574059C16.022 0.387392 15.9434 0.202059 15.79 0.0927257Z" fill="white"/>
</g>
</g>
</g>
</g>
<defs>
<filter id="filter0_d_1_7" x="-1031" y="-756" width="1109" height="826" filterUnits="userSpaceOnUse" color-interpolation-filters="sRGB">
<feFlood flood-opacity="0" result="BackgroundImageFix"/>
<feColorMatrix in="SourceAlpha" type="matrix" values="0 0 0 0 0 0 0 0 0 0 0 0 0 0 0 0 0 0 127 0" result="hardAlpha"/>
<feOffset/>
<feGaussianBlur stdDeviation="4"/>
<feComposite in2="hardAlpha" operator="out"/>
<feColorMatrix type="matrix" values="0 0 0 0 0 0 0 0 0 0 0 0 0 0 0 0 0 0 0.05 0"/>
<feBlend mode="normal" in2="BackgroundImageFix" result="effect1_dropShadow_1_7"/>
<feBlend mode="normal" in="SourceGraphic" in2="effect1_dropShadow_1_7" result="shape"/>
</filter>
<filter id="filter1_d_1_7" x="-346" y="-552" width="402" height="604" filterUnits="userSpaceOnUse" color-interpolation-filters="sRGB">
<feFlood flood-opacity="0" result="BackgroundImageFix"/>
<feColorMatrix in="SourceAlpha" type="matrix" values="0 0 0 0 0 0 0 0 0 0 0 0 0 0 0 0 0 0 127 0" result="hardAlpha"/>
<feOffset dy="4"/>
<feGaussianBlur stdDeviation="8"/>
<feComposite in2="hardAlpha" operator="out"/>
<feColorMatrix type="matrix" values="0 0 0 0 0 0 0 0 0 0 0 0 0 0 0 0 0 0 0.2 0"/>
<feBlend mode="normal" in2="BackgroundImageFix" result="effect1_dropShadow_1_7"/>
<feBlend mode="normal" in="SourceGraphic" in2="effect1_dropShadow_1_7" result="shape"/>
</filter>
<clipPath id="clip0_1_7">
<rect x="-1370" y="-748" width="1440" height="810" rx="12" fill="white"/>
</clipPath>
<clipPath id="clip1_1_7">
<rect width="16" height="16" fill="white"/>
</clipPath>
</defs>
</svg>
