<svg width="814" height="242" viewBox="0 0 814 242" fill="none" xmlns="http://www.w3.org/2000/svg">
<path d="M572.492 89.2334V178.467L617.113 166.522C590.443 151.094 572.492 122.257 572.492 89.2334Z" fill="url(#paint0_linear_65_986)"/>
<path d="M661.725 6.80974e-05C612.442 6.80974e-05 572.492 39.9507 572.492 89.2334C572.492 122.267 590.433 151.104 617.113 166.522C630.236 174.122 645.476 178.467 661.735 178.467C677.994 178.467 693.224 174.123 706.347 166.522C733.017 151.094 750.968 122.257 750.968 89.2335C750.968 39.9508 711.018 6.80974e-05 661.735 6.80974e-05H661.725ZM661.725 124.968C641.992 124.968 625.99 108.966 625.99 89.2335C625.99 69.5006 641.992 53.4986 661.725 53.4986C681.458 53.4986 697.46 69.5006 697.46 89.2335C697.46 108.966 681.458 124.968 661.725 124.968Z" fill="url(#paint1_linear_65_986)"/>
<path d="M706.337 166.532L750.958 178.477V89.2436C750.958 122.277 733.017 151.114 706.337 166.532Z" fill="url(#paint2_linear_65_986)"/>
<path d="M768.108 52.5979H812.443V156.072C812.443 168.313 802.517 178.239 790.276 178.239C778.034 178.239 768.108 168.313 768.108 156.072V52.5979Z" fill="url(#paint3_linear_65_986)"/>
<path d="M767.406 22.9688V45.8388L778.846 42.7809C772.008 38.8224 767.406 31.4399 767.406 22.9688Z" fill="url(#paint4_linear_65_986)"/>
<path d="M790.276 0.0990921C777.638 0.0990921 767.406 10.3413 767.406 22.9688C767.406 31.4399 772.008 38.8224 778.846 42.7809C782.21 44.7304 786.119 45.839 790.286 45.839C794.452 45.839 798.361 44.7208 801.726 42.7811C808.564 38.8227 813.166 31.4402 813.166 22.9691C813.166 10.3317 802.923 0.0990921 790.296 0.0990921H790.276ZM790.276 32.1329C785.219 32.1329 781.122 28.0359 781.122 22.979C781.122 17.922 785.219 13.825 790.276 13.825C795.333 13.825 799.43 17.922 799.43 22.979C799.43 28.0359 795.333 32.1329 790.276 32.1329Z" fill="url(#paint5_linear_65_986)"/>
<path d="M801.716 42.7809L813.156 45.8388V22.9688C813.156 31.4399 808.554 38.8224 801.716 42.7809Z" fill="url(#paint6_linear_65_986)"/>
<path d="M0 89.2334V178.467L44.6217 166.522C17.9417 151.104 0 122.267 0 89.2334Z" fill="url(#paint7_linear_65_986)"/>
<path d="M89.2434 6.80974e-05C39.9508 6.80974e-05 0 39.9507 0 89.2334C0 122.267 17.9417 151.104 44.6217 166.522C57.744 174.122 72.9841 178.467 89.2434 178.467C105.503 178.467 120.733 174.123 133.855 166.522C160.525 151.094 178.477 122.257 178.477 89.2335C178.477 39.9508 138.526 6.80974e-05 89.2434 6.80974e-05ZM89.2335 124.968C69.5006 124.968 53.4986 108.966 53.4986 89.2335C53.4986 69.5006 69.5006 53.4986 89.2335 53.4986C108.966 53.4986 124.968 69.5006 124.968 89.2335C124.968 108.966 108.966 124.968 89.2335 124.968Z" fill="url(#paint8_linear_65_986)"/>
<path d="M133.855 166.532L178.477 178.477V89.2436C178.477 122.277 160.535 151.114 133.855 166.532Z" fill="url(#paint9_linear_65_986)"/>
<path d="M194.736 109.857V3.40487e-05H243.89V108.63C243.89 120.674 252.985 129.026 264.534 129.026V179.407C224.721 179.407 194.736 149.422 194.736 109.857Z" fill="url(#paint10_linear_65_986)"/>
<path d="M286.652 109.857V0H335.806V108.63C335.806 120.674 344.9 129.026 356.449 129.026V179.407C316.637 179.407 286.652 149.422 286.652 109.857Z" fill="url(#paint11_linear_65_986)"/>
<path d="M364.069 192.925C396.014 198.824 411.006 183.099 398.963 159.259L353.253 44.9781H404.861L432.877 115.023L460.893 44.9781H512.501L458.676 179.407C439.755 221.436 416.895 247.978 364.059 239.615V192.925H364.069Z" fill="url(#paint12_linear_65_986)"/>
<defs>
<linearGradient id="paint0_linear_65_986" x1="-0.494912" y1="-0.495455" x2="847.765" y2="241.148" gradientUnits="userSpaceOnUse">
<stop stop-color="#4CD6C7"/>
<stop offset="1" stop-color="#109389"/>
</linearGradient>
<linearGradient id="paint1_linear_65_986" x1="-0.494912" y1="-0.495455" x2="847.765" y2="241.148" gradientUnits="userSpaceOnUse">
<stop stop-color="#4CD6C7"/>
<stop offset="1" stop-color="#109389"/>
</linearGradient>
<linearGradient id="paint2_linear_65_986" x1="-0.494912" y1="-0.495455" x2="847.765" y2="241.148" gradientUnits="userSpaceOnUse">
<stop stop-color="#4CD6C7"/>
<stop offset="1" stop-color="#109389"/>
</linearGradient>
<linearGradient id="paint3_linear_65_986" x1="-0.494912" y1="-0.495455" x2="847.765" y2="241.148" gradientUnits="userSpaceOnUse">
<stop stop-color="#4CD6C7"/>
<stop offset="1" stop-color="#109389"/>
</linearGradient>
<linearGradient id="paint4_linear_65_986" x1="-0.494912" y1="-0.495455" x2="847.765" y2="241.148" gradientUnits="userSpaceOnUse">
<stop stop-color="#4CD6C7"/>
<stop offset="1" stop-color="#109389"/>
</linearGradient>
<linearGradient id="paint5_linear_65_986" x1="-0.494912" y1="-0.495455" x2="847.765" y2="241.148" gradientUnits="userSpaceOnUse">
<stop stop-color="#4CD6C7"/>
<stop offset="1" stop-color="#109389"/>
</linearGradient>
<linearGradient id="paint6_linear_65_986" x1="-0.494912" y1="-0.495455" x2="847.765" y2="241.148" gradientUnits="userSpaceOnUse">
<stop stop-color="#4CD6C7"/>
<stop offset="1" stop-color="#109389"/>
</linearGradient>
<linearGradient id="paint7_linear_65_986" x1="-0.494912" y1="-0.495455" x2="847.765" y2="241.148" gradientUnits="userSpaceOnUse">
<stop stop-color="#4CD6C7"/>
<stop offset="1" stop-color="#109389"/>
</linearGradient>
<linearGradient id="paint8_linear_65_986" x1="-0.494912" y1="-0.495455" x2="847.765" y2="241.148" gradientUnits="userSpaceOnUse">
<stop stop-color="#4CD6C7"/>
<stop offset="1" stop-color="#109389"/>
</linearGradient>
<linearGradient id="paint9_linear_65_986" x1="-0.494912" y1="-0.495455" x2="847.765" y2="241.148" gradientUnits="userSpaceOnUse">
<stop stop-color="#4CD6C7"/>
<stop offset="1" stop-color="#109389"/>
</linearGradient>
<linearGradient id="paint10_linear_65_986" x1="-0.494912" y1="-0.495455" x2="847.765" y2="241.148" gradientUnits="userSpaceOnUse">
<stop stop-color="#4CD6C7"/>
<stop offset="1" stop-color="#109389"/>
</linearGradient>
<linearGradient id="paint11_linear_65_986" x1="-0.494912" y1="-0.495455" x2="847.765" y2="241.148" gradientUnits="userSpaceOnUse">
<stop stop-color="#4CD6C7"/>
<stop offset="1" stop-color="#109389"/>
</linearGradient>
<linearGradient id="paint12_linear_65_986" x1="-0.494912" y1="-0.495455" x2="847.765" y2="241.148" gradientUnits="userSpaceOnUse">
<stop stop-color="#4CD6C7"/>
<stop offset="1" stop-color="#109389"/>
</linearGradient>
</defs>
</svg>
